<svg xmlns="http://www.w3.org/2000/svg" id="Calque_2" data-name="Calque 2"
    viewBox="0 0 476.97 118.08">
    <defs>
        <style>
            .cls-1 {
            fill: #010165;
            }

            .cls-2 {
            fill: #3ecf8e;
            }
        </style>
    </defs>
    <g id="Calque_1-2" data-name="Calque 1">
        <g>
            <path class="cls-1"
                d="M83.64,26l-11.65,55.99c-5.12,25.47-19.07,36.1-42.24,36.1-13.18,0-21.94-3-29.74-9.14l15.92-8.41c.96,1.13,4.61,3.86,14.85,3.86,14.98,0,22.14-6.66,24.71-19.71l.64-3.33c-5.76,4.99-13.31,7.94-22.4,7.94-17.79,0-30.59-10.75-30.59-28.29,0-21.25,16.26-37.76,38.79-37.76,10.24,0,19.58,3.58,24.19,12.03M60.72,52.42c0-9.6-6.53-15.62-17.92-15.62-13.7,0-23.55,9.73-23.55,23.3,0,9.6,6.79,15.62,18.05,15.62,13.7,0,23.42-9.73,23.42-23.3Z" />
            <path class="cls-1"
                d="M91.56,63.17c0-22.91,16.9-39.94,40.58-39.94,20.23,0,33.28,11.78,33.28,29.95,0,22.91-17.02,40.07-40.71,40.07-20.1,0-33.15-12.03-33.15-30.08ZM149.3,53.95c0-10.62-6.53-17.15-18.05-17.15-13.57,0-23.55,10.5-23.55,25.6,0,10.62,6.53,17.15,18.05,17.15,13.57,0,23.55-10.5,23.55-25.6Z" />
            <path class="cls-1"
                d="M174.12,63.17c0-22.91,16.9-39.94,40.58-39.94,20.23,0,33.28,11.78,33.28,29.95,0,22.91-17.02,40.07-40.71,40.07-20.1,0-33.15-12.03-33.15-30.08ZM231.86,53.95c0-10.62-6.53-17.15-18.05-17.15-13.57,0-23.55,10.5-23.55,25.6,0,10.62,6.53,17.15,18.05,17.15,13.57,0,23.55-10.5,23.55-25.6Z" />
            <path class="cls-2"
                d="M347.82,0l-58.88,92.35h-16.51l-15.74-62.35,15.74-6,11.39,50.82,39.87-62.82,24.13-12Z" />
            <path class="cls-1"
                d="M396.72,62.91h-54.27c.26,10.88,6.53,16.77,19.71,16.77,7.81,0,14.98-2.56,19.71-7.04l6.66,11.14c-7.17,6.4-17.54,9.47-28.03,9.47-20.61,0-33.67-11.9-33.67-30.08,0-23.17,16.51-39.94,39.43-39.94,18.95,0,31.49,11.26,31.49,29.95,0,3.46-.38,6.79-1.02,9.73ZM343.85,52.29h39.17c.13-10.5-6.91-16.26-17.54-16.26s-18.69,6.27-21.63,16.26Z" />
            <path class="cls-1"
                d="M475.95,62.91h-54.27c.26,10.88,6.53,16.77,19.71,16.77,7.81,0,14.98-2.56,19.71-7.04l6.66,11.14c-7.17,6.4-17.54,9.47-28.03,9.47-20.61,0-33.67-11.9-33.67-30.08,0-23.17,16.51-39.94,39.43-39.94,18.94,0,31.49,11.26,31.49,29.95,0,3.46-.38,6.79-1.02,9.73ZM423.08,52.29h39.17c.13-10.5-6.91-16.26-17.54-16.26s-18.69,6.27-21.63,16.26Z" />
        </g>
    </g>
</svg>