<svg xmlns="http://www.w3.org/2000/svg" width="228.333" height="103.613"
    viewBox="0 0 228.333 103.613">
    <defs>
        <style>.a{fill:#e63229;}.b{fill:none;}.c{fill:#312783;}</style>
    </defs>
    <g transform="translate(92.914)">
        <path class="a"
            d="M396.833,48.806c-3.956,0-8.012-1.64-11.935-3.227a43.167,43.167,0,0,0-9.079-2.932c-2.445,3.143-4.932,5.452-7.744,5.452a2.955,2.955,0,0,1-2.2-.816,2.144,2.144,0,0,1-.558-1.647c.135-2.164,2.747-4.493,8.162-4.493a15.691,15.691,0,0,1,1.758.1c.983-1.309,1.973-2.753,2.978-4.221.586-.855,1.192-1.739,1.8-2.607,1.078-1.53,2.306-3.145,3.629-4.668-1.146-.251-2.252-.581-3.339-.906-.73-.218-1.469-.439-2.223-.636a8.351,8.351,0,0,1-7.35,5.455c-1.978,0-4.107-.988-4.107-3.156,0-2.463,2.839-4.32,6.6-4.32a18.281,18.281,0,0,1,3.77.414c-.024-1.674-.471-3.324-3.2-4.222l.411-1.247c3.633,1.2,4.1,3.634,4.1,5.624,0,.051,0,.1,0,.153.807.209,1.593.444,2.371.676a37.017,37.017,0,0,0,3.982,1.032c3.022-3.239,6.442-5.811,9.684-5.811a2.044,2.044,0,0,1,2.129,2.095c0,2.392-4.082,5.281-9.151,5.281a15.5,15.5,0,0,1-2.171-.158,55.325,55.325,0,0,0-4.065,5.15c-.607.86-1.21,1.741-1.794,2.593-.872,1.273-1.733,2.529-2.595,3.7a48.023,48.023,0,0,1,8.683,2.894c3.806,1.539,7.742,3.131,11.443,3.131,5.537,0,6.758-2.421,7-3.163a1.455,1.455,0,0,0-.129-1.48l.775-1.059a2.644,2.644,0,0,1,.6,2.946C404.77,45.692,403.253,48.806,396.833,48.806Zm-23.35-6.352c-4.364,0-6.75,1.641-6.852,3.262a.845.845,0,0,0,.2.667,1.738,1.738,0,0,0,1.239.4c2.115,0,4.154-1.777,6.206-4.308Q373.88,42.454,373.483,42.454ZM373.236,27.5c-2.966,0-5.29,1.321-5.29,3.007,0,1.455,1.756,1.843,2.794,1.843a7.007,7.007,0,0,0,6.078-4.446A17.142,17.142,0,0,0,373.236,27.5Zm13.05,1.329c.344.026.692.041,1.046.041,4.877,0,7.839-2.756,7.839-3.968a.73.73,0,0,0-.817-.782C392.081,24.117,389.313,25.752,386.286,28.827Z"
            transform="translate(-365.316 -21.131)" />
        <path class="a"
            d="M437.795,68.362a2.6,2.6,0,0,1-2.85-2.622,2.448,2.448,0,0,1,1.248-2.138,2.366,2.366,0,0,1,2.356-.067l-.66,1.135a1.087,1.087,0,0,0-1.042.069,1.127,1.127,0,0,0-.591,1c0,1.215,1.177,1.309,1.538,1.309a2.438,2.438,0,0,0,2.619-2.411c0-1.026-.855-1.99-1.76-3.012A16.477,16.477,0,0,1,437.333,60c-1.768,3.22-5.59,6.828-8.87,6.828a2.864,2.864,0,0,1-2.193-.727,2.482,2.482,0,0,1-.546-1.95,4.717,4.717,0,0,1,.086-.64,4.361,4.361,0,0,1-2.45-1.048l.887-.967a3.312,3.312,0,0,0,1.981.731c1.082-2.448,3.64-4.675,5.339-4.675a1.573,1.573,0,0,1,1.593,1.548c0,1.479-1.164,2.873-3.113,3.73a8.84,8.84,0,0,1-2.9.713,3.68,3.68,0,0,0-.115.691,1.31,1.31,0,0,0,.193.969,1.774,1.774,0,0,0,1.236.312c3.032,0,6.887-4.019,8.137-6.961a3.9,3.9,0,0,1-.191-1.2c0-.414.065-1.412.672-1.745a.759.759,0,0,1,.783.021c.471.3.483.994.452,1.49A5.312,5.312,0,0,1,438,58.543a9.788,9.788,0,0,0,1.637,2.213c1.028,1.16,2.091,2.359,2.091,3.882A3.748,3.748,0,0,1,437.795,68.362Zm-6.227-9.5c-1,0-2.831,1.532-3.835,3.292a7.414,7.414,0,0,0,1.787-.528c1.436-.631,2.329-1.6,2.329-2.528A.263.263,0,0,0,431.567,58.866Z"
            transform="translate(-406.778 -45.693)" />
    </g>
    <rect class="a" width="26.034" height="1.313" transform="translate(101.164 102.301)" />
    <g transform="translate(0 24.69)">
        <path class="b"
            d="M61.644,226.432a6.212,6.212,0,0,0-1.747-.458l-.077-.015v18.876l.369.013a2.736,2.736,0,0,0,2.074-.475c.5-.488.688-1.414.681-3.418V230.349C62.936,227.953,62.608,226.965,61.644,226.432Z"
            transform="translate(-54.178 -192.135)" />
        <path class="b"
            d="M578.065,177.539c-.084.007-.205.015-.326.023l-.184.012v14.6a5.94,5.94,0,0,0,1.9-.305c1-.393,1.336-1.16,1.336-3.045v-8.393c0-1.476-.144-2.161-.532-2.526C579.9,177.565,579.285,177.463,578.065,177.539Z"
            transform="translate(-424.009 -157.531)" />
        <path class="b"
            d="M62.187,155.2c.494-.423.674-1.324.667-3.323v-9.4c-.011-3.248-.485-4.039-2.816-4.7a2.019,2.019,0,0,1-.209-.065l-.009,0v17.646l.105.02c.068.013.135.026.218.039C61.2,155.583,61.813,155.518,62.187,155.2Z"
            transform="translate(-54.178 -129.096)" />
        <path class="c"
            d="M51.106,138.7l-.192-.123.194-.119a4.991,4.991,0,0,0,2.809-4.061,31.494,31.494,0,0,0,.394-5.122V122.8c-.028-5.232-.449-7.542-1.732-9.5a8.225,8.225,0,0,0-5.421-3.707c-2.359-.654-4.743-1.339-7.089-2.036v59.8q1.745,0,3.49,0,1.775,0,3.551,0a6.622,6.622,0,0,0,4.933-1.686c1.691-1.7,2.433-4.763,2.4-9.92v-8.4C54.422,142.408,53.61,140.308,51.106,138.7Zm-5.68-22.9.177.044a2.075,2.075,0,0,1,.213.065,1.855,1.855,0,0,0,.187.058c2.48.7,3.017,1.586,3.028,4.976v9.4c.006,1.774-.12,2.986-.767,3.54a1.814,1.814,0,0,1-1.252.377,6.6,6.6,0,0,1-1.022-.095c-.086-.014-.157-.028-.228-.041s-.135-.026-.216-.039l-.12-.019Zm3.7,40.581c.006,1.771-.12,3-.768,3.623a2.616,2.616,0,0,1-1.951.562q-.159,0-.332-.006l-.645-.023v-19.5l.416.08a6.47,6.47,0,0,1,1.823.485c1.082.6,1.447,1.649,1.456,4.17Z"
            transform="translate(-40.07 -107.559)" />
        <path class="c"
            d="M125.34,129.771l-1.156-.253c-1.418-.309-2.882-.628-4.278-.954v5l5.434,1.2Z"
            transform="translate(-97.099 -122.563)" />
        <path class="c"
            d="M122.654,202.76c.9,0,1.8,0,2.686,0V158.215l-5.434-1.093V202.76C120.813,202.762,121.733,202.761,122.654,202.76Z"
            transform="translate(-97.099 -142.963)" />
        <path class="c"
            d="M175.652,184.355V167.58l.155.013c1.182.1,1.988.153,2.842.211.569.039,1.167.08,1.924.137v-5.512l-.455-.043c-1.632-.155-2.531-.24-4.338-.427l-.128-.013V146.067l.165.027,1.6.259c1.322.214,2.573.417,3.965.621v-5.582c-3.947-.655-7.675-1.375-11.161-2.059v50.72c1.958,0,3.973,0,5.985,0,1.9,0,3.8,0,5.656,0v-5.579c-.867-.018-1.765-.033-2.665-.049-1.151-.02-2.308-.039-3.411-.065Z"
            transform="translate(-133.044 -130.256)" />
        <path class="c"
            d="M243.974,151.735c-1.421-.185-2.706-.377-4.066-.579l-1.594-.236V198.33h5.051V172.206l.284-.024L248.1,198.33c.982,0,1.911,0,2.842,0h2.71V152.848c-1.637-.173-3.362-.357-4.991-.549v25.352l-.284.024Z"
            transform="translate(-181.681 -138.534)" />
        <path class="c"
            d="M332.911,180.468l-.149-.005q-1.7-.059-3.389-.126l-.137-.005V161.1c-1.721-.119-3.49-.255-5.4-.413V205.3h5.4V185.321l.147,0q1.693.054,3.388.1l.139,0V205.3h5.407V161.625c-1.751-.082-3.522-.177-5.406-.29.019,3.139.009,6.327,0,9.411-.01,3.138-.02,6.382,0,9.572Z"
            transform="translate(-242.771 -145.508)" />
        <path class="c"
            d="M406.736,165.1v43.357h11.475v-4.881c-1.97,0-3.973,0-5.943,0h-.143V188.909h.143c1.977.009,2.91.011,4.837.007v-4.878c-1.918.005-2.827,0-4.838-.009h-.142V170.143h.144c1.978.017,3.984.022,5.964.013v-4.944C414.381,165.233,410.616,165.2,406.736,165.1Z"
            transform="translate(-301.989 -148.666)" />
        <path class="c"
            d="M482.308,202.338c-1.066,0-1.84-.958-1.84-2.279v-.368c0-.294,0-.642,0-1.238V163.261c-1.887.073-3.679.131-5.47.176v34.2a20.185,20.185,0,0,0,.255,4.691,6.251,6.251,0,0,0,1.358,2.814,7.458,7.458,0,0,0,5.672,2.182h.009c3.85,0,6.36-1.8,7.07-5.073l.014-.06a16.119,16.119,0,0,0,.448-4.7v-34.7c-1.874.116-3.648.215-5.414.3v35.333C484.41,200.564,484.252,202.338,482.308,202.338Z"
            transform="translate(-350.749 -147.01)" />
        <path class="c"
            d="M572.124,186.557c.025-2.334-.494-3.973-1.5-4.742a5.472,5.472,0,0,0-1.714-.864l-.277-.1.247-.158a5.441,5.441,0,0,0,2.652-3.076,16.266,16.266,0,0,0,.593-4.6v-6.765c.048-4.48-.3-6.186-1.506-7.3-1.291-1.2-2.679-1.509-5.5-1.214-2.5.259-5.22.5-7.565.7v44.691h2.641c.934,0,1.867,0,2.788,0V183.378l.588-.028a3.311,3.311,0,0,1,2.5.67,3.515,3.515,0,0,1,.724,2.64v11.695a14.265,14.265,0,0,0,.431,4.772h5.3a11.5,11.5,0,0,1-.391-3.8Zm-5.338-11.937c0,2-.4,2.87-1.51,3.309a6.548,6.548,0,0,1-2.146.335l-.151.008V163.11l.131-.011c.085-.008.2-.015.321-.023s.238-.015.323-.023a3.239,3.239,0,0,1,2.41.44c.52.489.622,1.373.622,2.734Z"
            transform="translate(-409.719 -143.33)" />
        <path class="c"
            d="M645.179,193.907c1.929,0,3.857,0,5.816,0V188.26l-2,.047c-1.166.027-2.3.054-3.563.08l-.146,0V172.114l.133-.009,1.652-.117c.935-.065,1.68-.118,2.951-.218V166.2l-1.266.127c-1.08.109-1.854.188-3.314.32l-.156.014v-15.4l1.124-.157c1.682-.234,3.419-.476,5.065-.727v-5.643c-3.839.665-8.071,1.285-11.762,1.816v47.362h2.133Z"
            transform="translate(-468.411 -134.11)" />
        <path class="c"
            d="M715.1,176.9c-1.052,0-1.68-.931-1.68-2.491v-.252c0-.37-.006-1.024,0-1.8V130.632c-1.738.364-3.558.731-5.413,1.092v41.207c0,4.606.756,6.575,1.39,7.415a6.89,6.89,0,0,0,5.646,2.555c3.849,0,6.376-2.189,7.092-6.2a27.53,27.53,0,0,0,.521-5.819V128.593c-1.571.367-3.278.753-5.343,1.206v42.915C717.313,175.531,716.589,176.9,715.1,176.9Z"
            transform="translate(-517.195 -122.584)" />
        <path class="c"
            d="M797.516,108.045c-1.774.525-3.571,1.044-5.347,1.542l-2.54,17.911-.15-.928c-.856-5.278-1.71-10.51-2.54-15.553-1.834.488-3.695.969-5.535,1.43l5.173,26.624,0,.026-5.118,28.6q1.3,0,2.607,0,1.347,0,2.695,0l2.783-17.7.142.889c.622,3.888,1.247,7.855,1.875,11.84l.784,4.972h1.1l1.706,0q1.4,0,2.808,0l-5.377-29.325Z"
            transform="translate(-569.623 -107.906)" />
    </g>
</svg>