<svg xmlns="http://www.w3.org/2000/svg" xmlns:xlink="http://www.w3.org/1999/xlink" width="109" zoomAndPan="magnify" viewBox="0 0 81.75 30.000001" height="40" preserveAspectRatio="xMidYMid meet" version="1.2"><defs><clipPath id="4fe90f7e00"><path d="M 1.199219 0 L 80.308594 0 L 80.308594 29.03125 L 1.199219 29.03125 Z M 1.199219 0 "/></clipPath><clipPath id="2a7c2bccd9"><path d="M 0.125 0.695312 L 75 0.695312 L 75 26.246094 L 0.125 26.246094 Z M 0.125 0.695312 "/></clipPath><clipPath id="f90e114ba9"><path d="M 0.125 8 L 12 8 L 12 22 L 0.125 22 Z M 0.125 8 "/></clipPath><clipPath id="5b6c7f39a9"><rect x="0" width="75" y="0" height="27"/></clipPath><clipPath id="290a23f10c"><path d="M 22.253906 8.671875 L 24.90625 8.671875 L 24.90625 11.210938 L 22.253906 11.210938 Z M 22.253906 8.671875 "/></clipPath><clipPath id="93ea43aa70"><path d="M 0.253906 0.671875 L 2.90625 0.671875 L 2.90625 3.210938 L 0.253906 3.210938 Z M 0.253906 0.671875 "/></clipPath><clipPath id="4a4d8307b1"><rect x="0" width="3" y="0" height="4"/></clipPath><clipPath id="807893e47d"><path d="M 22.441406 8.785156 L 24.71875 8.785156 L 24.71875 11.0625 L 22.441406 11.0625 Z M 22.441406 8.785156 "/></clipPath><clipPath id="dbab20aad3"><path d="M 23.582031 8.785156 C 22.949219 8.785156 22.441406 9.292969 22.441406 9.921875 C 22.441406 10.554688 22.949219 11.0625 23.582031 11.0625 C 24.210938 11.0625 24.71875 10.554688 24.71875 9.921875 C 24.71875 9.292969 24.210938 8.785156 23.582031 8.785156 Z M 23.582031 8.785156 "/></clipPath><clipPath id="5bd7c96051"><path d="M 0.441406 0.785156 L 2.71875 0.785156 L 2.71875 3.0625 L 0.441406 3.0625 Z M 0.441406 0.785156 "/></clipPath><clipPath id="fad757ea78"><path d="M 1.582031 0.785156 C 0.949219 0.785156 0.441406 1.292969 0.441406 1.921875 C 0.441406 2.554688 0.949219 3.0625 1.582031 3.0625 C 2.210938 3.0625 2.71875 2.554688 2.71875 1.921875 C 2.71875 1.292969 2.210938 0.785156 1.582031 0.785156 Z M 1.582031 0.785156 "/></clipPath><clipPath id="af4dfa4fb3"><rect x="0" width="3" y="0" height="4"/></clipPath><clipPath id="01da850b83"><path d="M 74.578125 19.316406 L 76.859375 19.316406 L 76.859375 21.597656 L 74.578125 21.597656 Z M 74.578125 19.316406 "/></clipPath><clipPath id="84c38a24a2"><path d="M 75.71875 19.316406 C 75.089844 19.316406 74.578125 19.828125 74.578125 20.457031 C 74.578125 21.085938 75.089844 21.597656 75.71875 21.597656 C 76.347656 21.597656 76.859375 21.085938 76.859375 20.457031 C 76.859375 19.828125 76.347656 19.316406 75.71875 19.316406 Z M 75.71875 19.316406 "/></clipPath><clipPath id="9f55d91b60"><path d="M 0.578125 0.316406 L 2.859375 0.316406 L 2.859375 2.597656 L 0.578125 2.597656 Z M 0.578125 0.316406 "/></clipPath><clipPath id="81b226e32e"><path d="M 1.71875 0.316406 C 1.089844 0.316406 0.578125 0.828125 0.578125 1.457031 C 0.578125 2.085938 1.089844 2.597656 1.71875 2.597656 C 2.347656 2.597656 2.859375 2.085938 2.859375 1.457031 C 2.859375 0.828125 2.347656 0.316406 1.71875 0.316406 Z M 1.71875 0.316406 "/></clipPath><clipPath id="e4c419a459"><rect x="0" width="3" y="0" height="3"/></clipPath><clipPath id="1bda90043d"><rect x="0" width="78" y="0" height="27"/></clipPath></defs><g id="c09288c094"><g clip-rule="nonzero" clip-path="url(#4fe90f7e00)"><path style=" stroke:none;fill-rule:nonzero;fill:#ffffff;fill-opacity:1;" d="M 1.199219 0 L 80.308594 0 L 80.308594 29.03125 L 1.199219 29.03125 Z M 1.199219 0 "/><path style=" stroke:none;fill-rule:nonzero;fill:#ffffff;fill-opacity:1;" d="M 1.199219 0 L 80.308594 0 L 80.308594 29.03125 L 1.199219 29.03125 Z M 1.199219 0 "/></g><g transform="matrix(1,0,0,1,2,0.000000000000005773)"><g clip-path="url(#1bda90043d)"><g clip-rule="nonzero" clip-path="url(#2a7c2bccd9)"><g transform="matrix(1,0,0,1,-0.000000000000000444,0.000000000000005773)"><g id="c549ca0b92" clip-path="url(#5b6c7f39a9)"><g clip-rule="nonzero" clip-path="url(#f90e114ba9)"><g style="fill:#01014f;fill-opacity:1;"><g transform="translate(0.207371, 21.619722)"><path style="stroke:none" d="M 3.28125 -3.921875 C 3.28125 -3.285156 3.515625 -2.78125 3.984375 -2.40625 C 4.453125 -2.039062 5.117188 -1.859375 5.984375 -1.859375 C 6.847656 -1.859375 7.503906 -2 7.953125 -2.28125 C 8.410156 -2.5625 8.640625 -2.972656 8.640625 -3.515625 C 8.640625 -3.835938 8.519531 -4.113281 8.28125 -4.34375 C 8.050781 -4.582031 7.5 -4.804688 6.625 -5.015625 L 4.453125 -5.515625 C 3.085938 -5.835938 2.15625 -6.273438 1.65625 -6.828125 C 1.164062 -7.390625 0.921875 -8.160156 0.921875 -9.140625 C 0.921875 -10.285156 1.328125 -11.222656 2.140625 -11.953125 C 2.960938 -12.691406 4.191406 -13.0625 5.828125 -13.0625 C 7.441406 -13.0625 8.664062 -12.648438 9.5 -11.828125 C 10.34375 -11.003906 10.769531 -10.046875 10.78125 -8.953125 L 8.234375 -8.953125 C 8.171875 -9.566406 7.925781 -10.035156 7.5 -10.359375 C 7.070312 -10.691406 6.445312 -10.859375 5.625 -10.859375 C 4.957031 -10.859375 4.421875 -10.71875 4.015625 -10.4375 C 3.609375 -10.164062 3.40625 -9.796875 3.40625 -9.328125 C 3.40625 -9.003906 3.492188 -8.734375 3.671875 -8.515625 C 3.847656 -8.304688 4.140625 -8.15625 4.546875 -8.0625 L 7.9375 -7.21875 C 9.164062 -6.925781 10.015625 -6.5 10.484375 -5.9375 C 10.953125 -5.375 11.1875 -4.671875 11.1875 -3.828125 C 11.1875 -2.441406 10.707031 -1.398438 9.75 -0.703125 C 8.789062 -0.00390625 7.597656 0.34375 6.171875 0.34375 C 4.335938 0.34375 2.972656 -0.046875 2.078125 -0.828125 C 1.179688 -1.609375 0.734375 -2.640625 0.734375 -3.921875 Z M 3.28125 -3.921875 "/></g></g></g><g style="fill:#01014f;fill-opacity:1;"><g transform="translate(11.200889, 21.619722)"><path style="stroke:none" d="M 9.734375 0 L 7.25 0 L 7.25 -5.859375 C 7.25 -6.429688 7.117188 -6.863281 6.859375 -7.15625 C 6.597656 -7.445312 6.191406 -7.59375 5.640625 -7.59375 C 5.023438 -7.59375 4.546875 -7.382812 4.203125 -6.96875 C 3.859375 -6.5625 3.6875 -6.039062 3.6875 -5.40625 L 3.6875 0 L 1.21875 0 L 1.21875 -12.71875 L 3.6875 -12.71875 L 3.6875 -8.234375 L 3.734375 -8.234375 C 4.296875 -9.191406 5.210938 -9.671875 6.484375 -9.671875 C 7.460938 -9.671875 8.25 -9.382812 8.84375 -8.8125 C 9.4375 -8.238281 9.734375 -7.472656 9.734375 -6.515625 Z M 9.734375 0 "/></g></g><g style="fill:#01014f;fill-opacity:1;"><g transform="translate(21.130183, 21.619722)"><path style="stroke:none" d="M 3.6875 -10.546875 L 1.21875 -10.546875 L 1.21875 -12.84375 L 3.6875 -12.84375 Z M 3.6875 -9.4375 L 3.6875 0 L 1.21875 0 L 1.21875 -9.4375 Z M 3.6875 -9.4375 "/></g></g><g style="fill:#01014f;fill-opacity:1;"><g transform="translate(25.150007, 21.619722)"><path style="stroke:none" d="M 6.203125 0 L 3.59375 0 L 0.21875 -9.4375 L 2.96875 -9.4375 L 4.921875 -2.484375 L 4.953125 -2.484375 L 6.96875 -9.4375 L 9.609375 -9.4375 Z M 6.203125 0 "/></g></g><g style="fill:#01014f;fill-opacity:1;"><g transform="translate(34.058338, 21.619722)"><path style="stroke:none" d="M 6.625 -4.5625 C 6.3125 -4.351562 5.71875 -4.1875 4.84375 -4.0625 C 4.101562 -3.957031 3.617188 -3.789062 3.390625 -3.5625 C 3.160156 -3.332031 3.046875 -3.03125 3.046875 -2.65625 C 3.046875 -2.28125 3.164062 -1.992188 3.40625 -1.796875 C 3.644531 -1.609375 3.9375 -1.515625 4.28125 -1.515625 C 4.90625 -1.515625 5.453125 -1.691406 5.921875 -2.046875 C 6.390625 -2.410156 6.625 -2.859375 6.625 -3.390625 Z M 9.046875 -1.84375 C 9.046875 -1.40625 9.082031 -1.0625 9.15625 -0.8125 C 9.238281 -0.570312 9.382812 -0.425781 9.59375 -0.375 L 9.59375 0 L 6.9375 0 C 6.8125 -0.3125 6.726562 -0.679688 6.6875 -1.109375 C 5.875 -0.203125 4.820312 0.25 3.53125 0.25 C 2.644531 0.25 1.925781 0.00390625 1.375 -0.484375 C 0.832031 -0.984375 0.5625 -1.65625 0.5625 -2.5 C 0.5625 -3.3125 0.796875 -3.976562 1.265625 -4.5 C 1.742188 -5.019531 2.457031 -5.351562 3.40625 -5.5 L 5.734375 -5.828125 C 6.046875 -5.878906 6.269531 -5.96875 6.40625 -6.09375 C 6.550781 -6.226562 6.625 -6.394531 6.625 -6.59375 C 6.625 -6.957031 6.488281 -7.234375 6.21875 -7.421875 C 5.957031 -7.609375 5.550781 -7.703125 5 -7.703125 C 4.425781 -7.703125 4.007812 -7.597656 3.75 -7.390625 C 3.488281 -7.179688 3.328125 -6.84375 3.265625 -6.375 L 0.859375 -6.375 C 0.984375 -7.519531 1.375 -8.351562 2.03125 -8.875 C 2.695312 -9.40625 3.753906 -9.671875 5.203125 -9.671875 C 6.367188 -9.671875 7.300781 -9.4375 8 -8.96875 C 8.695312 -8.5 9.046875 -7.828125 9.046875 -6.953125 Z M 9.046875 -1.84375 "/></g></g><g style="fill:#01014f;fill-opacity:1;"><g transform="translate(43.295454, 21.619722)"><path style="stroke:none" d="M 9.734375 0 L 7.25 0 L 7.25 -5.859375 C 7.25 -6.398438 7.125 -6.820312 6.875 -7.125 C 6.625 -7.4375 6.210938 -7.59375 5.640625 -7.59375 C 5.046875 -7.59375 4.570312 -7.394531 4.21875 -7 C 3.863281 -6.613281 3.6875 -6.082031 3.6875 -5.40625 L 3.6875 0 L 1.21875 0 L 1.21875 -9.4375 L 3.59375 -9.4375 L 3.59375 -8.046875 L 3.625 -8.046875 C 4.21875 -9.128906 5.15625 -9.671875 6.4375 -9.671875 C 7.394531 -9.671875 8.179688 -9.394531 8.796875 -8.84375 C 9.421875 -8.289062 9.734375 -7.515625 9.734375 -6.515625 Z M 9.734375 0 "/></g></g><g style="fill:#01014f;fill-opacity:1;"><g transform="translate(53.224748, 21.619722)"><path style="stroke:none" d="M 3.984375 -9.4375 L 5.515625 -9.4375 L 5.515625 -7.65625 L 3.984375 -7.65625 L 3.984375 -2.375 C 3.984375 -2.125 4.050781 -1.960938 4.1875 -1.890625 C 4.320312 -1.816406 4.53125 -1.78125 4.8125 -1.78125 C 5.09375 -1.78125 5.328125 -1.789062 5.515625 -1.8125 L 5.515625 0.03125 C 5.148438 0.09375 4.703125 0.125 4.171875 0.125 C 3.191406 0.125 2.5 -0.0195312 2.09375 -0.3125 C 1.695312 -0.613281 1.5 -1.148438 1.5 -1.921875 L 1.5 -7.65625 L 0.21875 -7.65625 L 0.21875 -9.4375 L 1.5 -9.4375 L 1.5 -11.96875 L 3.984375 -11.96875 Z M 3.984375 -9.4375 "/></g></g><g style="fill:#01014f;fill-opacity:1;"><g transform="translate(58.291491, 21.619722)"><path style="stroke:none" d="M 1.21875 -9.4375 L 3.59375 -9.4375 L 3.59375 -7.796875 L 3.625 -7.796875 C 3.914062 -8.410156 4.265625 -8.875 4.671875 -9.1875 C 5.078125 -9.507812 5.59375 -9.671875 6.21875 -9.671875 C 6.375 -9.671875 6.53125 -9.660156 6.6875 -9.640625 L 6.6875 -7.125 C 6.570312 -7.144531 6.335938 -7.15625 5.984375 -7.15625 C 5.203125 -7.15625 4.625 -6.96875 4.25 -6.59375 C 3.875 -6.21875 3.6875 -5.65625 3.6875 -4.90625 L 3.6875 0 L 1.21875 0 Z M 1.21875 -9.4375 "/></g></g><g style="fill:#01014f;fill-opacity:1;"><g transform="translate(64.396501, 21.619722)"><path style="stroke:none" d="M 6.625 -4.5625 C 6.3125 -4.351562 5.71875 -4.1875 4.84375 -4.0625 C 4.101562 -3.957031 3.617188 -3.789062 3.390625 -3.5625 C 3.160156 -3.332031 3.046875 -3.03125 3.046875 -2.65625 C 3.046875 -2.28125 3.164062 -1.992188 3.40625 -1.796875 C 3.644531 -1.609375 3.9375 -1.515625 4.28125 -1.515625 C 4.90625 -1.515625 5.453125 -1.691406 5.921875 -2.046875 C 6.390625 -2.410156 6.625 -2.859375 6.625 -3.390625 Z M 9.046875 -1.84375 C 9.046875 -1.40625 9.082031 -1.0625 9.15625 -0.8125 C 9.238281 -0.570312 9.382812 -0.425781 9.59375 -0.375 L 9.59375 0 L 6.9375 0 C 6.8125 -0.3125 6.726562 -0.679688 6.6875 -1.109375 C 5.875 -0.203125 4.820312 0.25 3.53125 0.25 C 2.644531 0.25 1.925781 0.00390625 1.375 -0.484375 C 0.832031 -0.984375 0.5625 -1.65625 0.5625 -2.5 C 0.5625 -3.3125 0.796875 -3.976562 1.265625 -4.5 C 1.742188 -5.019531 2.457031 -5.351562 3.40625 -5.5 L 5.734375 -5.828125 C 6.046875 -5.878906 6.269531 -5.96875 6.40625 -6.09375 C 6.550781 -6.226562 6.625 -6.394531 6.625 -6.59375 C 6.625 -6.957031 6.488281 -7.234375 6.21875 -7.421875 C 5.957031 -7.609375 5.550781 -7.703125 5 -7.703125 C 4.425781 -7.703125 4.007812 -7.597656 3.75 -7.390625 C 3.488281 -7.179688 3.328125 -6.84375 3.265625 -6.375 L 0.859375 -6.375 C 0.984375 -7.519531 1.375 -8.351562 2.03125 -8.875 C 2.695312 -9.40625 3.753906 -9.671875 5.203125 -9.671875 C 6.367188 -9.671875 7.300781 -9.4375 8 -8.96875 C 8.695312 -8.5 9.046875 -7.828125 9.046875 -6.953125 Z M 9.046875 -1.84375 "/></g></g></g></g></g><g clip-rule="nonzero" clip-path="url(#290a23f10c)"><g transform="matrix(1,0,0,1,22,8)"><g id="c27d8b5371" clip-path="url(#4a4d8307b1)"><g clip-rule="nonzero" clip-path="url(#93ea43aa70)"><path style=" stroke:none;fill-rule:nonzero;fill:#ffffff;fill-opacity:1;" d="M 0.253906 0.671875 L 2.902344 0.671875 L 2.902344 3.210938 L 0.253906 3.210938 Z M 0.253906 0.671875 "/></g></g></g></g><g clip-rule="nonzero" clip-path="url(#807893e47d)"><g clip-rule="nonzero" clip-path="url(#dbab20aad3)"><g transform="matrix(1,0,0,1,22,8)"><g id="2b16bb1e15" clip-path="url(#af4dfa4fb3)"><g clip-rule="nonzero" clip-path="url(#5bd7c96051)"><g clip-rule="nonzero" clip-path="url(#fad757ea78)"><path style=" stroke:none;fill-rule:nonzero;fill:#01014f;fill-opacity:1;" d="M 0.441406 0.785156 L 2.71875 0.785156 L 2.71875 3.0625 L 0.441406 3.0625 Z M 0.441406 0.785156 "/></g></g></g></g></g></g><g clip-rule="nonzero" clip-path="url(#01da850b83)"><g clip-rule="nonzero" clip-path="url(#84c38a24a2)"><g transform="matrix(1,0,0,1,74,19)"><g id="88bcfefa45" clip-path="url(#e4c419a459)"><g clip-rule="nonzero" clip-path="url(#9f55d91b60)"><g clip-rule="nonzero" clip-path="url(#81b226e32e)"><path style=" stroke:none;fill-rule:nonzero;fill:#01014f;fill-opacity:1;" d="M 0.578125 0.316406 L 2.859375 0.316406 L 2.859375 2.597656 L 0.578125 2.597656 Z M 0.578125 0.316406 "/></g></g></g></g></g></g></g></g></g></svg>